<?xml version="1.0" encoding="utf-8"?>
<!-- Generator: Adobe Illustrator 18.0.0, SVG Export Plug-In . SVG Version: 6.00 Build 0)  -->
<!DOCTYPE svg PUBLIC "-//W3C//DTD SVG 1.1//EN" "http://www.w3.org/Graphics/SVG/1.1/DTD/svg11.dtd">
<svg version="1.1" id="Layer_1" xmlns="http://www.w3.org/2000/svg" xmlns:xlink="http://www.w3.org/1999/xlink" x="0px" y="0px"
	 viewBox="10 60 180 80" enable-background="new 10 60 180 80" xml:space="preserve">
<path fill="none" stroke="#7994A6" stroke-miterlimit="10" d="M35.7,100.1c2.9-0.5,5.9,0.2,8.3,1.8c2.8,1.8,4.7,4.7,7.6,6.4
	c2.5,1.4,5.4,1.7,8.2,2c2.8,0.3,5.6,0.6,8.3,0.1c1.8-0.4,3.6-1.1,5.2-1.9c10.1-5.3,16.7-16.6,27.7-19.6c4.1-1.1,8.4-1,12.5-2
	c5.2-1.3,10.2-4.4,15.6-4.1"/>
<polyline fill="none" stroke="#7994A5" stroke-width="2" stroke-miterlimit="10" points="25.7,63.9 25.7,128.9 180.4,128.9 "/>
<circle fill="#F69276" cx="112.2" cy="87.3" r="1.3"/>
<g>
	<g>
		<line fill="none" stroke="#EAEDEF" stroke-miterlimit="10" x1="112.2" y1="88.7" x2="112.2" y2="89.4"/>
		
			<line fill="none" stroke="#EAEDEF" stroke-miterlimit="10" stroke-dasharray="3.0133,3.0133" x1="112.2" y1="90.9" x2="112.2" y2="126.5"/>
		<line fill="none" stroke="#EAEDEF" stroke-miterlimit="10" x1="112.2" y1="127.3" x2="112.2" y2="128"/>
	</g>
</g>
<rect x="106.4" y="131.2" fill="none" width="17.5" height="5.2"/>
<text transform="matrix(1 0 0 1 107.4272 133.8201)" fill="#72CAC1" font-family="'CourierNewPS-BoldMT'" font-size="3">August</text>
<text transform="matrix(1 0 0 1 172.963 133.8201)" fill="#7994A5" font-family="'CourierNewPS-BoldMT'" font-size="3">Time</text>
<text transform="matrix(4.489659e-11 -1 1 4.489659e-11 21.9608 70.8467)" fill="#7994A5" font-family="'CourierNewPS-BoldMT'" font-size="3">Mood</text>
</svg>
