<?xml version="1.0" encoding="utf-8"?>
<!-- Generator: Adobe Illustrator 18.0.0, SVG Export Plug-In . SVG Version: 6.00 Build 0)  -->
<!DOCTYPE svg PUBLIC "-//W3C//DTD SVG 1.1//EN" "http://www.w3.org/Graphics/SVG/1.1/DTD/svg11.dtd">
<svg version="1.1" id="Layer_1" xmlns="http://www.w3.org/2000/svg" xmlns:xlink="http://www.w3.org/1999/xlink" x="0px" y="0px"
	 viewBox="0 0 1280 800" enable-background="new 0 0 1280 800" xml:space="preserve">
<polyline fill="none" stroke="#7994A5" stroke-width="2" stroke-miterlimit="10" points="121.6,203.3 121.6,665.5 1221.7,665.5 "/>
<path fill="none" stroke="#7994A6" stroke-miterlimit="10" d="M167.9,319.2c7.8-19.9,27-33.4,46.2-42c54.8-23.5,120.9-17.1,170,17.8
	c28.4,19.9,50.5,48.4,76.8,71.8c26.3,23.5,61.2,41.2,95.3,34.1c15.6-2.8,29.2-10.7,44.1-15.6c22.8-8.5,46.9-11.4,71.1-13.5
	c24.2-2.8,51.2-5.7,73.2,5c37,16.4,51.2,59.7,74.7,91.7c12.1,15.6,26.3,29.9,42,41.2c14.2,10,34.8,17.1,47.6,5.7
	c5-3.6,7.8-10,10-15.6c28.4-59,56.2-118,84.6-176.4c10-19.9,19.9-41.2,38.4-54c18.5-12.8,46.9-12.8,59.7,5.7"/>
<circle fill="#F69276" cx="725.4" cy="371.1" r="9.2"/>
<g>
	<g>
		<line fill="none" stroke="#EAEDEF" stroke-miterlimit="10" x1="725.4" y1="381.1" x2="725.4" y2="386"/>
		
			<line fill="none" stroke="#EAEDEF" stroke-miterlimit="10" stroke-dasharray="3.0133,3.0133" x1="725.4" y1="396.7" x2="725.4" y2="648.4"/>
		<line fill="none" stroke="#EAEDEF" stroke-miterlimit="10" x1="725.4" y1="654.1" x2="725.4" y2="659.1"/>
	</g>
</g>
<rect x="695.5" y="681.9" fill="none" width="124.4" height="37"/>
<text transform="matrix(1 0 0 1 695.703 695.579)" fill="#72CAC1" font-family="'CourierNewPS-BoldMT'" font-size="21.3333">11/12</text>
<text transform="matrix(1 0 0 1 1168.8506 700.4991)" fill="#7994A5" font-family="'CourierNewPS-BoldMT'" font-size="21.3333">Time</text>
<g>
	
		<text transform="matrix(4.489659e-11 -1 1 4.489659e-11 58.0566 460.0043)" fill="#7994A5" font-family="'CourierNewPS-BoldMT'" font-size="21.3333">Mood</text>
	
		<text transform="matrix(4.489659e-11 -1 1 4.489659e-11 97.0562 260.4356)" fill="#7994A5" font-family="'CourierNewPS-BoldMT'" font-size="21.3333">Good</text>
	
		<text transform="matrix(4.489659e-11 -1 1 4.489659e-11 97.0564 665.5112)" fill="#7994A5" font-family="'CourierNewPS-BoldMT'" font-size="21.3333">Bad</text>
</g>
</svg>
