<?xml version="1.0" encoding="utf-8"?>
<!-- Generator: Adobe Illustrator 18.0.0, SVG Export Plug-In . SVG Version: 6.00 Build 0)  -->
<!DOCTYPE svg PUBLIC "-//W3C//DTD SVG 1.1//EN" "http://www.w3.org/Graphics/SVG/1.1/DTD/svg11.dtd">
<svg version="1.1" id="Layer_1" xmlns="http://www.w3.org/2000/svg" xmlns:xlink="http://www.w3.org/1999/xlink" x="0px" y="0px"
	 viewBox="0 0 1280 800" enable-background="new 0 0 1280 800" xml:space="preserve">
<path fill="none" stroke="#7994A6" stroke-miterlimit="10" d="M161.5,462.8c46.9-2.8,93.9-10.7,138.7-24.2
	c48.4-14.9,95.3-35.6,144.4-44.8c29.2-5.7,59.7-7.1,89.6-10c37-4.3,74-10.7,110.2-19.9c25.6-6.4,51.2-14.9,77.5-12.8
	c16.4,0.7,32,5.7,48.4,7.1c17.8,1.4,36.3-0.7,54,2.1c39.8,6.4,70.4,37.7,106,57.6c69,39.1,153.6,32.7,232.5,25.6"/>
<polyline fill="none" stroke="#7994A5" stroke-width="2" stroke-miterlimit="10" points="121.6,203.3 121.6,665.5 1221.7,665.5 "/>
<circle fill="#F69276" cx="453.7" cy="393.2" r="9.2"/>
<g>
	<g>
		<line fill="none" stroke="#EAEDEF" stroke-miterlimit="10" x1="453.7" y1="402.4" x2="453.7" y2="407.4"/>
		
			<line fill="none" stroke="#EAEDEF" stroke-miterlimit="10" stroke-dasharray="3.0133,3.0133" x1="453.7" y1="417.3" x2="453.7" y2="647.7"/>
		<line fill="none" stroke="#EAEDEF" stroke-miterlimit="10" x1="453.7" y1="652.7" x2="453.7" y2="657.7"/>
	</g>
</g>
<rect x="695.5" y="681.9" fill="none" width="124.4" height="37"/>
<text transform="matrix(1 0 0 1 430.8146 700.4991)" fill="#72CAC1" font-family="'CourierNewPS-BoldMT'" font-size="21.3333">11/5</text>
<text transform="matrix(1 0 0 1 1168.8506 700.4991)" fill="#7994A5" font-family="'CourierNewPS-BoldMT'" font-size="21.3333">Time</text>
<g>
	
		<text transform="matrix(4.489659e-11 -1 1 4.489659e-11 58.057 460.0044)" fill="#7994A5" font-family="'CourierNewPS-BoldMT'" font-size="21.3333">Mood</text>
	
		<text transform="matrix(4.489659e-11 -1 1 4.489659e-11 97.0565 260.4357)" fill="#7994A5" font-family="'CourierNewPS-BoldMT'" font-size="21.3333">Good</text>
	
		<text transform="matrix(4.489659e-11 -1 1 4.489659e-11 97.0568 665.5112)" fill="#7994A5" font-family="'CourierNewPS-BoldMT'" font-size="21.3333">Bad</text>
</g>
</svg>
