<?xml version="1.0" encoding="utf-8"?>
<!-- Generator: Adobe Illustrator 18.0.0, SVG Export Plug-In . SVG Version: 6.00 Build 0)  -->
<!DOCTYPE svg PUBLIC "-//W3C//DTD SVG 1.1//EN" "http://www.w3.org/Graphics/SVG/1.1/DTD/svg11.dtd">
<svg version="1.1" id="Layer_1" xmlns="http://www.w3.org/2000/svg" xmlns:xlink="http://www.w3.org/1999/xlink" x="0px" y="0px"
	 viewBox="10 60 180 80" enable-background="new 10 60 180 80" xml:space="preserve">
<g>
	<polyline fill="none" stroke="#7994A5" stroke-width="2" stroke-miterlimit="10" points="25.7,63.9 25.7,128.9 180.4,128.9 	"/>
	<path fill="none" stroke="#7994A6" stroke-miterlimit="10" d="M32.2,80.2c1.1-2.8,3.8-4.7,6.5-5.9c7.7-3.3,17-2.4,23.9,2.5
		c4,2.8,7.1,6.8,10.8,10.1s8.6,5.8,13.4,4.8c2.2-0.4,4.1-1.5,6.2-2.2c3.2-1.2,6.6-1.6,10-1.9c3.4-0.4,7.2-0.8,10.3,0.7
		c5.2,2.3,7.2,8.4,10.5,12.9c1.7,2.2,3.7,4.2,5.9,5.8c2,1.4,4.9,2.4,6.7,0.8c0.7-0.5,1.1-1.4,1.4-2.2c4-8.3,7.9-16.6,11.9-24.8
		c1.4-2.8,2.8-5.8,5.4-7.6c2.6-1.8,6.6-1.8,8.4,0.8"/>
	<circle fill="#F69276" cx="110.6" cy="87.5" r="1.3"/>
	<g>
		<g>
			<line fill="none" stroke="#EAEDEF" stroke-miterlimit="10" x1="110.6" y1="88.9" x2="110.6" y2="89.6"/>
			
				<line fill="none" stroke="#EAEDEF" stroke-miterlimit="10" stroke-dasharray="3.0133,3.0133" x1="110.6" y1="91.1" x2="110.6" y2="126.5"/>
			<line fill="none" stroke="#EAEDEF" stroke-miterlimit="10" x1="110.6" y1="127.3" x2="110.6" y2="128"/>
		</g>
	</g>
	<rect x="106.4" y="131.2" fill="none" width="17.5" height="5.2"/>
	<text transform="matrix(1 0 0 1 106.427 133.1279)" fill="#72CAC1" font-family="'CourierNewPS-BoldMT'" font-size="3">11/12</text>
	<text transform="matrix(1 0 0 1 172.963 133.8201)" fill="#7994A5" font-family="'CourierNewPS-BoldMT'" font-size="3">Time</text>
	
		<text transform="matrix(4.489659e-11 -1 1 4.489659e-11 21.9608 70.8467)" fill="#7994A5" font-family="'CourierNewPS-BoldMT'" font-size="3">Mood</text>
</g>
</svg>
