<?xml version="1.0" encoding="utf-8"?>
<!-- Generator: Adobe Illustrator 18.0.0, SVG Export Plug-In . SVG Version: 6.00 Build 0)  -->
<!DOCTYPE svg PUBLIC "-//W3C//DTD SVG 1.1//EN" "http://www.w3.org/Graphics/SVG/1.1/DTD/svg11.dtd">
<svg version="1.1" id="Layer_1" xmlns="http://www.w3.org/2000/svg" xmlns:xlink="http://www.w3.org/1999/xlink" x="0px" y="0px"
	 viewBox="-336 -210 1616 1010" enable-background="new -336 -210 1616 1010" xml:space="preserve">
<g>
	<g>
		<g>
			<g>
				<path fill="#F4F4F4" d="M483.6,318.2L132.2,97.9C210.3-26.7,336.7-97.3,483.6-97.3V318.2z"/>
			</g>
		</g>
		<g>
			<g>
				<path fill="#F69276" d="M483.6,318.2L308.8,693.7C101.5,597,11.2,350.7,108,143.4c7.5-16.7,14.8-28.8,24.2-44.6L483.6,318.2z"/>
			</g>
		</g>
		<g>
			<g>
				<path fill="#72CAC1" d="M483.6,318.2l407.2-79c43.8,225.1-103.2,442.6-328.3,486.2c-90.1,17.6-171,7.5-253.8-31.6L483.6,318.2z"
					/>
			</g>
		</g>
		<g>
			<g>
				<path fill="#AEAEAE" d="M483.6,318.2L727.2-17.3c89.3,64.2,142.2,148.7,163.7,256.6L483.6,318.2z"/>
			</g>
		</g>
		<g>
			<g>
				<path fill="#7994A6" d="M483.6,318.2V-96.5c91.2,0,169.3,25.1,243.5,79L483.6,318.2z"/>
			</g>
		</g>
	</g>
	<text transform="matrix(1 0 0 1 653.3554 -114.0002)" fill="#7994A6" font-family="'CourierNewPS-BoldMT'" font-size="37.1895">Sad 12%</text>
	<text transform="matrix(1 0 0 1 -166.7525 468.6384)" fill="#F69276" font-family="'CourierNewPS-BoldMT'" font-size="37.1895">Angry 27%</text>
	<text transform="matrix(1 0 0 1 852.8632 609.2615)" fill="#72CAC1" font-family="'CourierNewPS-BoldMT'" font-size="37.1895">Happy 35%</text>
	<text transform="matrix(1 0 0 1 905.9765 80.4686)" fill="#AEAEAE" font-family="'CourierNewPS-BoldMT'" font-size="37.1895">Nervous 16%</text>
	<text transform="matrix(1 0 0 1 69.0425 -70.2549)" fill="#7994A6" font-family="'CourierNewPS-BoldMT'" font-size="37.1895">Calm 20%</text>
</g>
</svg>
