<?xml version="1.0" encoding="utf-8"?>
<!-- Generator: Adobe Illustrator 18.0.0, SVG Export Plug-In . SVG Version: 6.00 Build 0)  -->
<!DOCTYPE svg PUBLIC "-//W3C//DTD SVG 1.1//EN" "http://www.w3.org/Graphics/SVG/1.1/DTD/svg11.dtd">
<svg version="1.1" id="Layer_1" xmlns="http://www.w3.org/2000/svg" xmlns:xlink="http://www.w3.org/1999/xlink" x="0px" y="0px"
	 viewBox="0 0 150 150" enable-background="new 0 0 150 150" xml:space="preserve">
<g>
	<g>
		<g>
			<path fill="#F4F4F4" d="M75,77L37.2,53.3c8.4-13.4,22-21,37.8-21V77z"/>
		</g>
	</g>
	<g>
		<g>
			<path fill="#F69276" d="M75,77l-18.8,40.4c-22.3-10.4-32-36.9-21.6-59.2c0.8-1.8,1.6-3.1,2.6-4.8L75,77z"/>
		</g>
	</g>
	<g>
		<g>
			<path fill="#72CAC1" d="M75,77l43.8-8.5c4.7,24.2-11.1,47.6-35.3,52.3c-9.7,1.9-18.4,0.8-27.3-3.4L75,77z"/>
		</g>
	</g>
	<g>
		<g>
			<path fill="#AEAEAE" d="M75,77l26.2-36.1c9.6,6.9,15.3,16,17.6,27.6L75,77z"/>
		</g>
	</g>
	<g>
		<g>
			<path fill="#7994A6" d="M75,77V32.4c9.8,0,18.2,2.7,26.2,8.5L75,77z"/>
		</g>
	</g>
	<g>
		<g>
		</g>
		<g>
		</g>
		<g>
		</g>
		<g>
		</g>
		<g>
		</g>
	</g>
</g>
<text transform="matrix(1 0 0 1 93.2545 30.516)" fill="#7994A6" font-family="'CourierNewPS-BoldMT'" font-size="4">Sad 12%</text>
<text transform="matrix(1 0 0 1 5.0463 93.1827)" fill="#F69276" font-family="'CourierNewPS-BoldMT'" font-size="4">Angry 27%</text>
<text transform="matrix(1 0 0 1 114.713 108.3077)" fill="#72CAC1" font-family="'CourierNewPS-BoldMT'" font-size="4">Happy 35%</text>
<text transform="matrix(1 0 0 1 120.4255 51.4327)" fill="#AEAEAE" font-family="'CourierNewPS-BoldMT'" font-size="4">Nervous 16%</text>
<text transform="matrix(1 0 0 1 30.4078 35.2207)" fill="#7994A6" font-family="'CourierNewPS-BoldMT'" font-size="4">Calm 20%</text>
</svg>
