<?xml version="1.0" encoding="utf-8"?>
<!-- Generator: Adobe Illustrator 18.0.0, SVG Export Plug-In . SVG Version: 6.00 Build 0)  -->
<!DOCTYPE svg PUBLIC "-//W3C//DTD SVG 1.1//EN" "http://www.w3.org/Graphics/SVG/1.1/DTD/svg11.dtd">
<svg version="1.1" id="Layer_1" xmlns="http://www.w3.org/2000/svg" xmlns:xlink="http://www.w3.org/1999/xlink" x="0px" y="0px"
	 viewBox="-374.4 -171.2 1928.4 1205.2" enable-background="new -374.4 -171.2 1928.4 1205.2" xml:space="preserve">
<g>
	<text transform="matrix(1 0 0 1 -38.2769 224.9951)" fill="#7994A6" font-family="'CourierNewPS-BoldMT'" font-size="39.3474">Sad 15%</text>
	<text transform="matrix(1 0 0 1 261.4829 -43.832)" fill="#F69276" font-family="'CourierNewPS-BoldMT'" font-size="39.3474">Angry 10%</text>
	<text transform="matrix(1 0 0 1 1069.146 276.4727)" fill="#72CAC1" font-family="'CourierNewPS-BoldMT'" font-size="39.3474">Happy 40%</text>
	<text transform="matrix(1 0 0 1 713.1362 906.5825)" fill="#AEAEAE" font-family="'CourierNewPS-BoldMT'" font-size="39.3474">Nervous 10%</text>
	<text transform="matrix(1 0 0 1 -14.6704 736.0474)" fill="#7994A6" font-family="'CourierNewPS-BoldMT'" font-size="39.3474">Calm 25%</text>
	<g>
		<g>
			<g>
				<path fill="#F69276" d="M572.9,421.3L315.4,67c78.3-56.9,160.7-83.7,257.5-83.7V421.3z"/>
			</g>
		</g>
		<g>
			<g>
				<path fill="#7994A6" d="M572.9,421.3h-438c0-145.2,63.1-269.1,180.6-354.4L572.9,421.3z"/>
			</g>
		</g>
		<g>
			<g>
				<path fill="#EAEDF0" d="M572.9,421.3v438c-241.9,0-438-196.1-438-438l0,0H572.9z"/>
			</g>
		</g>
		<g>
			<g>
				<path fill="#AEAEAE" d="M572.9,421.3l257.5,354.4c-78.3,56.9-160.7,83.7-257.5,83.7V421.3z"/>
			</g>
		</g>
		<g>
			<g>
				<path fill="#72CAC1" d="M572.9,421.3v-438c241.9,0,438,196.1,438,438c0,145.2-63.1,269.1-180.6,354.4L572.9,421.3z"/>
			</g>
		</g>
	</g>
	<g>
		<g>
		</g>
		<g>
		</g>
		<g>
		</g>
		<g>
		</g>
		<g>
		</g>
	</g>
</g>
</svg>
